<?xml version="1.0" encoding="UTF-8"?>
<svg id="Layer_2" data-name="Layer 2" xmlns="http://www.w3.org/2000/svg" viewBox="0 0 712.74 68.6">
  <defs>
    <style>
      .cls-1 {
        fill: none;
        stroke: #000;
        stroke-miterlimit: 10;
      }

      .cls-2 {
        fill: #010101;
      }
    </style>
  </defs>
  <g id="Layer_4" data-name="Layer 4">
    <g>
      <g>
        <path d="M26.23,34.3c-7.82,3.25-10.04,5.88-12.79,15.11-2.75-9.24-4.97-11.87-12.79-15.11,7.82-3.25,10.04-5.88,12.79-15.11,2.75,9.24,4.97,11.87,12.79,15.11Z"/>
        <path d="M13.44,50.29l-.24-.81c-2.74-9.21-4.87-11.72-12.65-14.96l-.56-.23.56-.23c7.78-3.23,9.91-5.75,12.65-14.96l.24-.81.24.81c2.74,9.21,4.87,11.72,12.65,14.96l.56.23-.56.23c-7.78,3.23-9.91,5.75-12.65,14.96l-.24.81ZM1.3,34.3c7.21,3.08,9.55,5.8,12.14,14.25,2.6-8.45,4.93-11.17,12.14-14.25-7.21-3.08-9.55-5.81-12.14-14.25-2.6,8.44-4.93,11.17-12.14,14.25Z"/>
      </g>
      <g>
        <path d="M712.09,34.3c-7.82,3.25-10.04,5.88-12.79,15.11-2.75-9.24-4.97-11.87-12.79-15.11,7.82-3.25,10.04-5.88,12.79-15.11,2.75,9.24,4.97,11.87,12.79,15.11Z"/>
        <path d="M699.3,50.29l-.24-.81c-2.74-9.21-4.87-11.72-12.65-14.96l-.56-.23.56-.23c7.78-3.23,9.91-5.75,12.65-14.96l.24-.81.24.81c2.74,9.21,4.87,11.72,12.65,14.96l.56.23-.56.23c-7.78,3.23-9.91,5.75-12.65,14.96l-.24.81ZM687.16,34.3c7.21,3.08,9.55,5.8,12.14,14.25,2.6-8.45,4.93-11.17,12.14-14.25-7.21-3.08-9.55-5.81-12.14-14.25-2.6,8.44-4.93,11.17-12.14,14.25Z"/>
      </g>
      <g>
        <path class="cls-2" d="M321.72,33.29c.99-.16,1.88-.12,2.79.33.41.19.79.39,1.2.5.54.15,1.11.16,1.66.11,1.08-.08,1.91-.38,2.7-1.13.3-.27.62-.6,1.03-.94.43-.36.94-.69,1.48-.91,1.28-.55,2.9-.68,4.28-.46.57.09,1.15.26,1.69.46.56.2,1.06.44,1.6.61.68.22,1.31.23,2.02.12,0,0,0,4.98,0,4.98-.58-.05-1.19-.15-1.8-.32-.86-.23-1.68-.63-2.42-1.11-1.15-.75-1.8-1.37-3.22-1.55-1.89-.3-2.48.61-4.09,1.32-1.17.52-2.48.54-3.69.29-.56-.11-1.12-.28-1.62-.56-.43-.23-.8-.55-1.17-.84-.42-.35-.9-.59-1.43-.72-.33-.08-.66-.12-1-.15,0,0,0-.04,0-.04h0Z"/>
        <path class="cls-2" d="M323.46,45.2c.87-.49,1.72-.75,2.74-.64.45.04.87.1,1.3.06.56-.05,1.09-.23,1.6-.47.99-.44,1.67-1.01,2.15-1.98.19-.35.38-.77.65-1.23.28-.48.65-.97,1.08-1.36,1.02-.96,2.5-1.63,3.87-1.89.82-.16,1.7-.16,2.51-.13.72.03,1.39.04,2.05-.2.27-.09.54-.22.82-.37l1.7,4.68c-1.14.32-2.45.44-3.64.26-.89-.12-1.75-.42-2.6-.57-.59-.1-1.18-.06-1.77.07-1.88.37-2.12,1.42-3.39,2.64-.92.89-2.14,1.35-3.37,1.54-.56.09-1.15.11-1.71.03-.48-.07-.94-.24-1.38-.39-.52-.18-1.05-.25-1.59-.19-.34.04-.67.11-.99.2v-.03h-.01Z"/>
        <path class="cls-2" d="M329.18,55.8c.46-.53,1-1.02,1.66-1.3.43-.19.91-.29,1.35-.41.65-.18,1.21-.53,1.7-.99.89-.82,1.43-1.6,1.57-2.82.06-.4.09-.86.19-1.38.1-.55.28-1.13.54-1.65.63-1.25,1.79-2.39,2.99-3.1.72-.43,1.54-.73,2.32-.98.68-.22,1.32-.43,1.86-.89.22-.18.43-.39.64-.63l3.2,3.81c-.48.34-1.01.65-1.58.91-.69.32-1.43.53-2.17.65-1.49.24-2.53.07-3.86.95-1.64.99-1.5,2.06-2.29,3.64-.53,1.09-1.46,1.92-2.48,2.51-.55.32-1.14.58-1.76.7-.48.1-.97.1-1.43.11-.55,0-1.07.12-1.56.37-.3.15-.59.33-.87.53,0,0-.02-.03-.02-.03h0Z"/>
        <path class="cls-2" d="M338.17,63.81c.25-.66.59-1.3,1.11-1.79.34-.33.76-.58,1.13-.85.55-.39.96-.91,1.26-1.51.56-1.07.8-1.99.51-3.18-.08-.39-.21-.84-.29-1.36-.09-.55-.12-1.16-.05-1.74.16-1.39.87-2.85,1.74-3.93.52-.65,1.2-1.21,1.84-1.71.57-.44,1.09-.86,1.45-1.47.14-.24.27-.51.39-.82l4.31,2.49c-.33.48-.72.96-1.17,1.4-.54.53-1.17.99-1.82,1.36-1.32.74-2.35.94-3.3,2.21-1.2,1.49-.71,2.45-.9,4.2-.14,1.27-.77,2.41-1.6,3.34-.37.43-.8.83-1.29,1.12-.41.26-.88.42-1.31.59-.51.19-.97.48-1.34.88-.23.25-.44.51-.63.79,0,0-.03-.02-.03-.02h0Z"/>
        <path class="cls-2" d="M349.36,68.25c.01-.71.11-1.42.43-2.07.21-.42.52-.81.77-1.18.38-.56.59-1.18.67-1.85.16-1.2.07-2.14-.61-3.17-.21-.34-.48-.71-.74-1.18-.28-.49-.51-1.05-.64-1.61-.32-1.36-.16-2.98.29-4.29.19-.55.46-1.09.75-1.58.3-.51.62-.97.88-1.47.33-.63.45-1.25.46-1.97,0,0,4.9.86,4.9.86-.15.57-.35,1.15-.62,1.71-.38.81-.91,1.55-1.51,2.19-.94,1-1.67,1.54-2.08,2.91-.62,1.81.17,2.55.59,4.26.31,1.24.1,2.53-.36,3.69-.2.53-.47,1.05-.83,1.5-.3.38-.68.7-1.03,1-.41.36-.74.78-.96,1.29-.14.31-.24.63-.32.96,0,0-.04,0-.04,0h0Z"/>
        <path class="cls-2" d="M361.39,68.6c-.33-.95-.44-1.83-.16-2.81.12-.43.25-.84.28-1.27.05-.56-.04-1.12-.18-1.66-.26-1.05-.7-1.82-1.58-2.47-.32-.25-.69-.51-1.1-.85-.43-.36-.84-.81-1.16-1.3-.77-1.17-1.17-2.74-1.19-4.14,0-.58.06-1.18.16-1.74.1-.58.25-1.12.32-1.68.1-.7,0-1.33-.24-2.01,0,0,4.9-.86,4.9-.86.05.58.06,1.2,0,1.82-.08.89-.33,1.77-.67,2.58-.54,1.26-1.04,2.01-.96,3.44.04,1.91,1.04,2.33,2.01,3.8.71,1.06.96,2.34.93,3.59,0,.57-.09,1.15-.27,1.69-.15.46-.4.89-.62,1.29-.27.48-.43.99-.46,1.54-.02.34,0,.67.03,1.01,0,0-.04,0-.04,0h0Z"/>
        <path class="cls-2" d="M372.82,64.82c-.45-.55-.83-1.16-1-1.86-.11-.46-.12-.95-.17-1.4-.06-.67-.31-1.29-.68-1.85-.65-1.02-1.32-1.69-2.5-2.04-.38-.12-.83-.24-1.33-.43-.53-.19-1.07-.47-1.53-.82-1.12-.84-2.04-2.18-2.54-3.48-.3-.78-.45-1.65-.56-2.45-.1-.71-.2-1.37-.55-1.99-.14-.25-.31-.49-.51-.74l4.31-2.49c.51,1.07.86,2.34.89,3.54.04.9-.11,1.79-.11,2.66,0,.6.14,1.18.38,1.73.69,1.79,1.77,1.84,3.19,2.88.98.71,1.64,1.77,2.04,2.88.22.59.37,1.22.39,1.86.02.49-.07.97-.14,1.43-.09.54-.06,1.08.09,1.6.1.32.22.64.37.94,0,0-.03.02-.03.02h0Z"/>
        <path class="cls-2" d="M382.27,57.35c-.61-.36-1.18-.81-1.57-1.41-.26-.39-.44-.85-.64-1.26-.29-.61-.73-1.1-1.27-1.51-.96-.74-1.82-1.13-3.05-1.06-.4.01-.86.06-1.39.05-.56,0-1.16-.08-1.72-.25-1.34-.4-2.66-1.35-3.57-2.4-.55-.63-.99-1.39-1.37-2.11-.34-.64-.66-1.22-1.2-1.68-.22-.18-.46-.36-.74-.52l3.2-3.81c.42.41.82.88,1.17,1.4.43.62.77,1.32,1.02,2.02.5,1.42.51,2.48,1.6,3.64,1.26,1.44,2.29,1.12,3.98,1.62,1.23.35,2.24,1.18,3.02,2.15.36.44.67.94.88,1.47.18.45.26.94.36,1.39.1.54.31,1.03.63,1.47.2.27.43.52.67.76,0,0-.02.03-.02.03h0Z"/>
        <path class="cls-2" d="M388.59,47.11c-.69-.13-1.38-.36-1.96-.79-.38-.28-.7-.65-1.03-.96-.48-.47-1.06-.78-1.71-.98-1.15-.36-2.1-.44-3.23.05-.37.15-.79.35-1.29.53-.53.19-1.12.32-1.7.35-1.4.08-2.96-.36-4.18-1.03-.51-.28-.99-.64-1.43-1.01-.45-.38-.85-.78-1.29-1.12-.56-.44-1.15-.66-1.86-.8,0,0,1.7-4.68,1.7-4.68.53.25,1.07.55,1.58.91.73.51,1.37,1.16,1.9,1.87.83,1.1,1.22,1.91,2.5,2.56,1.68.92,2.54.27,4.29.16,1.28-.09,2.51.34,3.57.99.49.29.95.65,1.33,1.08.32.36.57.79.81,1.19.28.47.64.87,1.1,1.17.28.19.58.34.89.48,0,0-.01.04-.01.04h0Z"/>
        <path class="cls-2" d="M391.02,35.31c-.99.16-1.88.12-2.79-.33-.41-.19-.79-.39-1.2-.5-.54-.15-1.11-.16-1.66-.11-1.08.08-1.91.38-2.7,1.13-.3.27-.62.6-1.03.94-.43.36-.94.69-1.48.91-1.28.55-2.9.68-4.28.46-.57-.09-1.15-.26-1.69-.46-.56-.2-1.06-.44-1.6-.61-.68-.22-1.31-.23-2.02-.12v-4.98c.58.05,1.19.15,1.8.32.86.23,1.68.63,2.42,1.11,1.15.75,1.8,1.37,3.22,1.55,1.89.3,2.48-.61,4.09-1.32,1.17-.52,2.48-.54,3.69-.29.56.11,1.12.28,1.62.56.43.23.8.55,1.17.84.42.35.9.59,1.43.72.33.08.66.12,1,.15v.04h0Z"/>
        <path class="cls-2" d="M389.28,23.4c-.87.49-1.72.75-2.74.64-.45-.04-.87-.1-1.3-.06-.56.05-1.09.23-1.6.47-.99.44-1.67,1.01-2.15,1.98-.19.35-.38.77-.65,1.23-.28.48-.65.97-1.08,1.36-1.02.96-2.5,1.63-3.87,1.89-.82.16-1.7.16-2.51.13-.72-.03-1.39-.04-2.05.2-.27.09-.54.22-.82.37l-1.7-4.68c1.14-.32,2.45-.44,3.64-.26.89.12,1.75.42,2.6.57.59.1,1.18.06,1.77-.07,1.88-.37,2.12-1.42,3.39-2.64.92-.89,2.14-1.35,3.37-1.54.56-.09,1.15-.11,1.71-.03.48.07.94.24,1.38.39.52.18,1.05.25,1.59.19.34-.04.67-.11.99-.2,0,0,.01.03.01.03h0Z"/>
        <path class="cls-2" d="M383.57,12.8c-.46.53-1,1.02-1.66,1.3-.43.19-.91.29-1.35.41-.65.18-1.21.53-1.7.99-.89.82-1.43,1.6-1.57,2.82-.06.4-.09.86-.19,1.38-.1.55-.28,1.13-.54,1.65-.63,1.25-1.79,2.39-2.99,3.1-.72.43-1.54.73-2.32.98-.68.22-1.32.43-1.86.89-.22.18-.43.39-.64.63l-3.2-3.81c.48-.34,1.01-.65,1.58-.91.69-.32,1.43-.53,2.17-.65,1.49-.24,2.53-.07,3.86-.95,1.64-.99,1.5-2.06,2.29-3.64.53-1.09,1.46-1.92,2.48-2.51.55-.32,1.14-.58,1.76-.7.48-.1.97-.1,1.43-.11.55,0,1.07-.12,1.56-.37.3-.15.59-.33.87-.53,0,0,.02.03.02.03h0Z"/>
        <path class="cls-2" d="M374.57,4.8c-.25.66-.59,1.3-1.11,1.79-.34.33-.76.58-1.13.85-.55.39-.96.91-1.26,1.51-.56,1.07-.8,1.99-.51,3.18.08.39.21.84.29,1.36.09.55.12,1.16.05,1.74-.16,1.39-.87,2.85-1.74,3.93-.52.65-1.2,1.21-1.84,1.71-.57.44-1.09.86-1.45,1.47-.14.24-.27.51-.39.82l-4.31-2.49c.33-.48.72-.96,1.17-1.4.54-.53,1.17-.99,1.82-1.36,1.32-.74,2.35-.93,3.3-2.21,1.2-1.49.71-2.45.9-4.2.14-1.27.77-2.41,1.6-3.34.37-.43.8-.83,1.29-1.12.41-.26.88-.42,1.31-.59.51-.19.97-.48,1.34-.88.23-.25.44-.51.63-.79,0,0,.03.02.03.02h0Z"/>
        <path class="cls-2" d="M363.39.35c-.01.71-.11,1.42-.43,2.07-.21.42-.52.81-.77,1.18-.38.56-.59,1.18-.67,1.85-.16,1.2-.07,2.14.61,3.17.21.34.48.71.74,1.18.28.49.51,1.05.64,1.61.32,1.36.16,2.98-.29,4.29-.19.55-.46,1.09-.75,1.58-.3.51-.62.97-.88,1.47-.33.63-.45,1.25-.46,1.97,0,0-4.9-.86-4.9-.86.15-.57.35-1.15.62-1.71.38-.81.91-1.55,1.51-2.19.94-1,1.67-1.54,2.08-2.91.62-1.81-.17-2.55-.59-4.26-.31-1.24-.1-2.53.36-3.69.2-.53.47-1.05.83-1.5.3-.38.68-.7,1.03-1,.41-.36.74-.78.96-1.29.14-.31.24-.63.32-.96,0,0,.04,0,.04,0h0Z"/>
        <path class="cls-2" d="M351.35,0c.33.95.44,1.83.16,2.81-.12.43-.25.84-.28,1.27-.05.56.04,1.12.18,1.66.26,1.05.7,1.82,1.58,2.47.32.25.69.51,1.1.85.43.36.84.81,1.16,1.3.77,1.17,1.17,2.74,1.19,4.14,0,.58-.06,1.18-.16,1.74-.1.58-.25,1.12-.32,1.68-.1.7,0,1.33.24,2.01l-4.9.86c-.05-.58-.06-1.2,0-1.82.08-.89.33-1.77.67-2.58.54-1.26,1.04-2.01.96-3.44-.04-1.91-1.04-2.33-2.01-3.8-.71-1.06-.96-2.34-.93-3.59,0-.57.09-1.15.27-1.69.15-.46.4-.89.62-1.29.27-.48.43-.99.46-1.54.02-.34,0-.67-.03-1.01h.04Z"/>
        <path class="cls-2" d="M339.92,3.79c.45.55.83,1.16,1,1.86.11.46.12.95.17,1.4.06.67.31,1.29.68,1.85.65,1.02,1.32,1.69,2.5,2.04.38.12.83.24,1.33.43.53.19,1.07.47,1.53.82,1.12.84,2.04,2.18,2.54,3.48.3.78.45,1.65.56,2.45.1.71.2,1.37.55,1.99.14.25.31.49.51.74l-4.31,2.49c-.51-1.07-.86-2.34-.89-3.54-.04-.9.11-1.79.11-2.66,0-.6-.14-1.18-.38-1.73-.69-1.79-1.77-1.84-3.19-2.88-.98-.71-1.64-1.77-2.04-2.88-.22-.59-.37-1.22-.39-1.86-.02-.49.07-.97.14-1.43.09-.54.06-1.08-.09-1.6-.1-.32-.22-.64-.37-.94l.03-.02h0Z"/>
        <path class="cls-2" d="M330.48,11.25c.61.36,1.18.81,1.57,1.41.26.39.44.85.64,1.26.29.61.73,1.1,1.27,1.51.96.74,1.82,1.13,3.05,1.06.4-.01.86-.06,1.39-.05.56,0,1.16.08,1.72.25,1.34.4,2.66,1.35,3.57,2.4.55.63.99,1.39,1.37,2.11.34.64.66,1.22,1.2,1.68.22.18.46.36.74.52l-3.2,3.81c-.42-.41-.82-.88-1.17-1.4-.43-.62-.77-1.32-1.02-2.02-.5-1.42-.51-2.48-1.6-3.64-1.26-1.44-2.29-1.12-3.98-1.62-1.23-.35-2.24-1.18-3.02-2.15-.36-.44-.67-.94-.88-1.47-.18-.45-.26-.94-.36-1.39-.1-.54-.31-1.03-.63-1.47-.2-.27-.43-.52-.67-.76,0,0,.02-.03.02-.03h0Z"/>
        <path class="cls-2" d="M324.16,21.5c.99.18,1.8.53,2.51,1.27.32.32.61.63.96.88.46.32.99.53,1.53.67,1.04.3,1.93.3,2.93-.14.37-.15.79-.35,1.29-.53.53-.19,1.12-.32,1.7-.35,1.4-.08,2.96.36,4.18,1.03.51.28.99.64,1.43,1.01.45.38.85.78,1.29,1.12.56.44,1.15.66,1.86.8,0,0-1.7,4.68-1.7,4.68-.53-.25-1.07-.55-1.58-.91-.73-.51-1.37-1.16-1.9-1.87-.83-1.1-1.22-1.91-2.5-2.56-1.68-.92-2.54-.27-4.29-.16-1.28.09-2.51-.34-3.57-.99-.49-.29-.95-.65-1.33-1.08-.32-.36-.57-.79-.81-1.19-.28-.47-.64-.87-1.1-1.17-.28-.19-.58-.34-.89-.48,0,0,.01-.04.01-.04h0Z"/>
        <path class="cls-2" d="M356.37,21c1.8,0,3.54.35,5.18,1.04,1.58.67,3.01,1.63,4.23,2.85,1.22,1.22,2.18,2.65,2.85,4.23.69,1.64,1.04,3.38,1.04,5.18s-.35,3.54-1.04,5.18c-.67,1.58-1.63,3.01-2.85,4.23-1.22,1.22-2.65,2.18-4.23,2.85-1.64.69-3.38,1.04-5.18,1.04s-3.54-.35-5.18-1.04c-1.58-.67-3.01-1.63-4.23-2.85-1.22-1.22-2.18-2.65-2.85-4.23-.69-1.64-1.04-3.38-1.04-5.18s.35-3.54,1.04-5.18c.67-1.58,1.63-3.01,2.85-4.23,1.22-1.22,2.65-2.18,4.23-2.85,1.64-.69,3.38-1.04,5.18-1.04M356.37,19.52c-8.16,0-14.78,6.62-14.78,14.78s6.62,14.78,14.78,14.78,14.78-6.62,14.78-14.78-6.62-14.78-14.78-14.78h0Z"/>
        <path class="cls-2" d="M368.28,34.31c0,6.57-5.33,11.91-11.91,11.91s-11.9-5.34-11.9-11.91,5.33-11.91,11.9-11.91,11.91,5.33,11.91,11.91Z"/>
      </g>
      <line class="cls-1" x1="38.06" y1="34.3" x2="303.84" y2="34.3"/>
      <line class="cls-1" x1="408.9" y1="34.3" x2="674.69" y2="34.3"/>
    </g>
  </g>
</svg>